<svg xmlns="http://www.w3.org/2000/svg" width="18.261" height="16.522" viewBox="0 0 18.261 16.522"><defs><style>.a{fill:#333;}</style></defs><g transform="translate(0 0)"><path class="a" d="M15.363,11.255,14.007,9.9l-6.1-6.077A2.87,2.87,0,0,0,3.841,7.878l6.1,6.079a.638.638,0,1,0,.9-.9l-6.1-6.079A1.594,1.594,0,0,1,7,4.727l6.1,6.077,1.356,1.35a2.871,2.871,0,1,1-4.068,4.052L9.263,15.081l-6.326-6.3-.452-.45A4.146,4.146,0,0,1,8.359,2.476l6.777,6.753a.638.638,0,1,0,.9-.9L9.263,1.576A5.421,5.421,0,0,0,1.582,9.229l6.777,6.752L9.49,17.107a4.146,4.146,0,0,0,5.872-5.852Z" transform="translate(0 16.522) rotate(-90)"/></g></svg>