<svg xmlns="http://www.w3.org/2000/svg" width="16" height="16" viewBox="0 0 16 16"><defs><style>.a{fill:#686868;}</style></defs><g transform="translate(0 0)"><path class="a" d="M7.445,15.764l-.014-.014c-.294-.287-.582-.58-.873-.871L4.765,13.089,2.678,11.006.961,9.292C.734,9.063.506,8.837.278,8.608L.237,8.573a.81.81,0,0,1,0-1.143l.025-.024c.285-.291.576-.575.864-.863L2.92,4.753,5.006,2.669,6.723.955l.72-.718A.843.843,0,0,1,8.015,0a.805.805,0,0,1,.808.807.827.827,0,0,1-.236.572l-.013.013c-.288.294-.582.581-.874.872L5.909,4.055Q4.865,5.1,3.822,6.138L2.765,7.194H15.191a.842.842,0,0,1,.572.236.81.81,0,0,1,0,1.143.841.841,0,0,1-.572.236h-.024c-.186,0-.373,0-.56,0H2.766l1.3,1.3,2.086,2.083L7.868,13.9l.72.719a.843.843,0,0,1,.238.571.814.814,0,0,1-.236.571.813.813,0,0,1-1.145,0Z" transform="translate(0 0)"/></g></svg>