<svg xmlns="http://www.w3.org/2000/svg" width="16.364" height="15.545" viewBox="0 0 16.364 15.545"><defs><style>.a{fill:#3480ba;}</style></defs><g transform="translate(-0.818 -0.818)"><path class="a" d="M15.455,10.8a10.847,10.847,0,0,1-3.245-.492.946.946,0,0,0-.923.212l-2,1.9A13.37,13.37,0,0,1,3.3,6.732l2-1.909a.836.836,0,0,0,.223-.877A9.384,9.384,0,0,1,5,.864.884.884,0,0,0,4.091,0H.909A.887.887,0,0,0,0,.864c0,8.11,6.918,14.682,15.455,14.682a.884.884,0,0,0,.909-.864V11.659A.884.884,0,0,0,15.455,10.8Z" transform="translate(0.818 0.818)"/></g></svg>