<svg xmlns="http://www.w3.org/2000/svg" width="13.915" height="7.846" viewBox="0 0 13.915 7.846"><defs><style>.a{fill:#5bc770;}</style></defs><path class="a" d="M13.679.222a.783.783,0,0,0-1.107.014L7,5.95l-.642-.642,3.88-3.979A.783.783,0,1,0,9.119.236L5.252,4.2,4.79,3.739A.783.783,0,1,0,3.683,4.846l.477.477-.612.628L1.336,3.739A.783.783,0,0,0,.229,4.846L3,7.617a.783.783,0,0,0,.553.229h0a.783.783,0,0,0,.555-.236L5.266,6.429,6.454,7.617a.783.783,0,0,0,.553.229h0a.783.783,0,0,0,.555-.236l6.125-6.281A.783.783,0,0,0,13.679.222Z"/></svg>