<svg xmlns="http://www.w3.org/2000/svg" width="22" height="13.655" viewBox="0 0 22 13.655"><defs><style>.a{fill:#3480ba;}</style></defs><path class="a" d="M4.43.141A.732.732,0,0,0,3.661.083L0,1.4a3.329,3.329,0,0,1,.053.657v8.793A3.329,3.329,0,0,1,0,11.5l3.661,1.313a.692.692,0,0,0,.331.082.779.779,0,0,0,.438-.141.923.923,0,0,0,.363-.739V.88A.923.923,0,0,0,4.43.141Z" transform="translate(17.207 0.759)"/><path class="a" d="M13.371,13.655H2.56A2.563,2.563,0,0,1,0,11.095V2.56A2.563,2.563,0,0,1,2.56,0h10.81a2.563,2.563,0,0,1,2.56,2.56v8.534A2.563,2.563,0,0,1,13.371,13.655Z"/></svg>